<svg xmlns="http://www.w3.org/2000/svg" viewBox="0 0 142.16 142.16"><defs><style>.cls-1,.cls-2,.cls-3,.cls-4,.cls-5{fill:none;stroke-miterlimit:10;}.cls-1,.cls-2{stroke:#76b900;}.cls-1{stroke-width:3.81px;}.cls-2{stroke-width:0.76px;stroke-dasharray:4.57;}.cls-3{stroke:#178217;}.cls-3,.cls-4,.cls-5{stroke-width:0.93px;}.cls-4{stroke:#0095c9;}.cls-5{stroke:#41bc00;}</style></defs><g id="Layer_2" data-name="Layer 2"><g id="Layer_1-2" data-name="Layer 1"><rect class="cls-1" x="1.9" y="1.9" width="138.36" height="138.36" rx="69.18"/><rect class="cls-2" x="10.29" y="10.29" width="121.58" height="121.58" rx="60.79"/><path class="cls-3" d="M28.74,74.23c15.06,0,11.42-7.53,22.51-7.53s8.17,7.53,23.51,7.53c15.07,0,11.42-7.53,22.51-7.53s8.17,7.53,23.51,7.53"/><path class="cls-4" d="M20.33,74.23c9.66,0,7.32-7.53,14.43-7.53S40,74.23,49.84,74.23c9.66,0,7.32-7.53,14.43-7.53s5.24,7.53,15.08,7.53h0c9.66,0,7.32-7.53,14.44-7.53s5.23,7.53,15.07,7.53c9.66,0,7.32-7.53,14.44-7.53"/><path class="cls-5" d="M26.86,81.63c8.66,0,6.56-22.33,12.94-22.33s4.69,22.33,13.51,22.33c8.66,0,6.56-22.33,12.94-22.33s4.69,22.33,13.51,22.33h0c8.66,0,6.56-22.33,12.94-22.33s4.69,22.33,13.51,22.33c8.66,0,6.56-22.33,12.94-22.33"/></g></g></svg>