<svg viewBox="0 0 1000 600"
     xmlns="http://www.w3.org/2000/svg"
     xmlns:xlink="http://www.w3.org/1999/xlink">
  <defs>
    <path
        id="path1302"
        style="
        fill: #ffffff;
        fill-opacity: 1;
        fill-rule: nonzero;
        stroke: none;
        "
        d="m 0,0 c 0,-0.679 -0.5,-1.135 -1.089,-1.135 v 0.005 c -0.606,-0.005 -1.097,0.451 -1.097,1.13 0,0.679 0.491,1.133 1.097,1.133 C -0.5,1.133 0,0.679 0,0 m 0.441,0 c 0,0.932 -0.724,1.473 -1.53,1.473 -0.813,0 -1.536,-0.541 -1.536,-1.473 0,-0.931 0.723,-1.474 1.536,-1.474 0.806,0 1.53,0.543 1.53,1.474 m -1.784,-0.124 h 0.164 l 0.38,-0.667 h 0.416 l -0.42,0.694 c 0.217,0.016 0.396,0.119 0.396,0.412 0,0.364 -0.251,0.48 -0.675,0.48 h -0.613 v -1.586 h 0.352 v 0.667 m 0,0.268 v 0.382 h 0.245 c 0.134,0 0.316,-0.01 0.316,-0.174 0,-0.177 -0.094,-0.208 -0.252,-0.208 h -0.309"
    />
  </defs>
  <use xlink:href="#MyPath" fill="none" stroke="#59fa81" />
  
</svg>