  <svg
            xmlns="http://www.w3.org/2000/svg"
            xmlns:xlink="http://www.w3.org/1999/xlink"
            xmlns:svg="http://www.w3.org/2000/svg"
          >
            <clipPath id="clipPath1298" clipPathUnits="userSpaceOnUse">
              <path id="path1296" d="M 0,1080 H 1920 V 0 H 0 Z" />
            </clipPath>
            <g id="g1292">
              <g clip-path="url(#clipPath1298)" id="g1294">
                <g transform="translate(210.7712,982.1727)" id="g1300">
                  <path
                    id="path1302"
                    style="
                      fill: #000000;
                      fill-opacity: 1;
                      fill-rule: nonzero;
                      stroke: none;
                    "
                    d="m 0,0 c 0,-0.679 -0.5,-1.135 -1.089,-1.135 v 0.005 c -0.606,-0.005 -1.097,0.451 -1.097,1.13 0,0.679 0.491,1.133 1.097,1.133 C -0.5,1.133 0,0.679 0,0 m 0.441,0 c 0,0.932 -0.724,1.473 -1.53,1.473 -0.813,0 -1.536,-0.541 -1.536,-1.473 0,-0.931 0.723,-1.474 1.536,-1.474 0.806,0 1.53,0.543 1.53,1.474 m -1.784,-0.124 h 0.164 l 0.38,-0.667 h 0.416 l -0.42,0.694 c 0.217,0.016 0.396,0.119 0.396,0.412 0,0.364 -0.251,0.48 -0.675,0.48 h -0.613 v -1.586 h 0.352 v 0.667 m 0,0.268 v 0.382 h 0.245 c 0.134,0 0.316,-0.01 0.316,-0.174 0,-0.177 -0.094,-0.208 -0.252,-0.208 h -0.309"
                  />
                </g>

                <g transform="translate(197.3044,994.8812)" id="g1304">
                  <path
                    id="path1306"
                    style="
                      fill: #000000;
                      fill-opacity: 1;
                      fill-rule: nonzero;
                      stroke: none;
                    "
                    d="m 0,0 2.861,-7.83 h -5.812 z m -3.066,3.049 -6.595,-16.712 h 4.658 l 1.043,2.954 h 7.805 l 0.988,-2.954 H 9.889 L 3.244,3.05 Z m -13.24,-16.717 h 4.724 V 3.054 l -4.725,0.001 z M -49.11,3.055 -53.052,-10.2 -56.83,3.054 l -5.098,0.001 5.394,-16.723 h 6.808 l 5.436,16.723 z m 19.099,-3.642 h 2.032 c 2.945,0 4.851,-1.323 4.851,-4.756 0,-3.433 -1.906,-4.756 -4.851,-4.756 h -2.032 z m -4.685,3.642 v -16.723 h 7.661 c 4.082,0 5.414,0.678 6.855,2.2 1.018,1.069 1.676,3.414 1.676,5.977 0,2.351 -0.557,4.448 -1.529,5.754 -1.749,2.335 -4.27,2.792 -8.034,2.792 z m -44.76,0.023 v -16.746 h 4.766 v 12.999 l 3.717,-0.013 c 1.223,0 2.068,-0.293 2.657,-0.922 0.747,-0.796 1.052,-2.079 1.052,-4.428 v -7.636 h 4.617 v 9.252 c 0,6.604 -4.209,7.494 -8.328,7.494 z m 37.156,-0.023 10e-4,-16.723 h 4.723 V 3.055 Z"
                  />
                </g>
                <g transform="translate(76.9543,991.7816)" id="g1308">
                  <path
                    id="path1310"
                    style="
                      fill: #76b900;
                      fill-opacity: 1;
                      fill-rule: nonzero;
                      stroke: none;
                    "
                    d="M 0,0 C 0,0 3.481,5.137 10.433,5.668 V 7.532 C 2.733,6.914 -3.934,0.393 -3.934,0.393 c 0,0 3.776,-10.917 14.367,-11.917 v 1.981 C 2.661,-8.565 0,0 0,0 m 10.433,-5.604 v -1.814 c -5.874,1.047 -7.504,7.153 -7.504,7.153 0,0 2.82,3.125 7.504,3.632 V 1.376 c -0.004,0 -0.006,0.001 -0.009,0.001 -2.458,0.295 -4.379,-2.002 -4.379,-2.002 0,0 1.076,-3.866 4.388,-4.979 m 0,16.574 V 7.532 c 0.226,0.017 0.452,0.032 0.679,0.04 8.754,0.295 14.457,-7.179 14.457,-7.179 0,0 -6.551,-7.966 -13.375,-7.966 -0.626,0 -1.211,0.058 -1.761,0.155 v -2.125 c 0.47,-0.06 0.958,-0.095 1.466,-0.095 6.351,0 10.944,3.243 15.392,7.082 0.736,-0.59 3.755,-2.027 4.376,-2.656 -4.229,-3.54 -14.084,-6.393 -19.67,-6.393 -0.539,0 -1.056,0.032 -1.564,0.081 v -2.986 h 24.138 v 25.48 z m 0,-7.603 v 2.301 c 0.223,0.016 0.449,0.028 0.679,0.035 6.295,0.198 10.425,-5.409 10.425,-5.409 0,0 -4.461,-6.195 -9.243,-6.195 -0.689,0 -1.305,0.111 -1.861,0.297 v 6.98 c 2.45,-0.296 2.943,-1.378 4.417,-3.834 l 3.276,2.762 c 0,0 -2.391,3.137 -6.423,3.137 -0.439,0 -0.858,-0.03 -1.27,-0.074"
                  />
                </g>
              </g>
            </g>
</svg>