<?xml version="1.0" encoding="UTF-8" standalone="no"?>
<!DOCTYPE svg PUBLIC "-//W3C//DTD SVG 1.1//EN" "http://www.w3.org/Graphics/SVG/1.1/DTD/svg11.dtd">
<svg xmlns="http://www.w3.org/2000/svg" version="1.1" 
viewBox="0 0 355 263" width="355.0pt" height="263.0pt">
    <path d="M 0.00 0.00 L 355.00 0.00 L 355.00 263.00 L 0.00 263.00 L 0.00 0.00 Z" fill="#080808" />
    <path d="M 163.89 45.86 C 199.58 45.90 235.31 45.82 271.00 45.88 C 288.82 46.54 306.75 45.21 324.55 46.14 C 324.63 102.64 324.65 159.15 324.54 215.66 C 316.04 215.94 307.51 215.76 299.00 215.80 C 253.96 215.84 208.91 215.72 163.87 215.86 C 163.77 209.18 163.92 202.51 163.65 195.82 C 147.37 194.39 131.57 189.14 117.95 180.07 C 96.04 166.07 79.76 144.07 69.34 120.51 C 68.86 119.26 68.37 117.93 68.38 116.56 C 69.94 114.21 72.34 112.29 74.49 110.47 C 85.26 101.67 96.61 93.45 108.88 86.86 C 125.71 77.63 144.48 70.34 163.78 69.07 C 163.80 73.12 163.79 77.17 163.81 81.22 C 176.93 80.30 189.73 82.83 201.63 88.32 C 214.52 94.42 225.55 103.39 235.01 113.99 C 235.72 114.91 236.63 115.95 236.89 117.11 C 236.70 118.46 235.59 119.71 234.81 120.79 C 225.64 132.01 214.67 142.75 202.17 150.19 C 194.54 154.91 185.99 157.91 177.01 158.51 C 172.39 158.76 168.16 157.68 163.72 156.63 C 163.80 160.71 163.85 164.78 163.57 168.86 C 157.15 167.01 150.89 165.33 145.10 161.88 C 129.46 153.01 119.11 137.78 113.45 120.99 C 123.62 110.71 136.36 103.37 150.22 99.32 C 154.29 98.10 158.48 97.59 162.61 96.66 C 163.78 96.38 163.63 95.35 163.74 94.37 C 163.95 90.00 163.75 85.60 163.66 81.22 C 150.28 82.73 137.32 85.93 125.45 92.46 C 114.07 98.72 103.29 107.08 95.35 117.42 C 93.47 119.49 94.90 121.26 95.58 123.51 C 103.35 142.15 115.63 160.07 132.74 171.26 C 142.13 177.53 152.71 181.12 163.82 182.86 C 163.69 177.99 163.56 173.19 164.40 168.36 C 177.28 171.60 192.11 168.14 204.16 163.15 C 220.84 156.03 236.15 144.69 249.32 132.32 C 254.60 127.23 259.80 122.14 264.30 116.32 C 260.28 111.46 256.16 106.75 251.36 102.64 C 238.48 90.95 224.04 81.40 207.68 75.32 C 193.72 70.06 178.54 67.83 163.66 68.80 C 163.91 61.15 163.69 53.51 163.89 45.86 Z" fill="#76b900" />
    <path d="M 168.32 96.34 C 174.44 96.13 180.92 96.55 186.80 98.36 C 197.86 101.69 207.21 108.42 214.85 116.97 C 207.72 123.23 200.42 129.39 192.98 135.28 C 188.87 128.84 184.90 120.91 179.08 115.89 C 174.59 112.03 169.46 111.05 163.84 109.92 C 163.58 105.32 163.71 100.80 164.42 96.24 C 165.72 96.28 167.02 96.32 168.32 96.34 Z" fill="#080808" />
    <path d="M 163.69 109.67 C 163.85 125.23 163.84 140.80 163.69 156.36 C 160.58 155.18 157.61 154.10 154.83 152.21 C 145.86 145.88 139.36 136.81 135.47 126.60 C 135.14 125.29 134.32 123.62 135.40 122.45 C 142.48 114.21 152.71 109.29 163.69 109.67 Z" fill="#080808" />
    <path d="M 275.77 136.48 C 285.50 142.24 295.98 147.06 305.05 153.82 C 291.19 165.23 274.56 172.58 257.90 178.90 C 234.84 187.36 210.45 193.62 185.96 195.88 C 178.54 196.85 171.22 196.59 163.78 196.18 C 163.77 191.73 163.77 187.29 163.84 182.84 C 185.72 184.86 207.76 180.24 227.34 170.38 C 242.56 162.77 255.99 152.90 269.01 142.03 C 271.24 140.13 273.40 138.21 275.77 136.48 Z" fill="#080808" />
</svg>