<?xml version="1.0" encoding="UTF-8"?>
<svg xmlns="http://www.w3.org/2000/svg" xmlns:xlink="http://www.w3.org/1999/xlink" width="1943pt" height="1440pt" viewBox="0 0 1943 1440" version="1.1">
<g id="surface1">
<path style=" stroke:none;fill-rule:nonzero;fill:rgb(3.137255%,3.137255%,3.137255%);fill-opacity:1;" d="M 0 0 L 1941.90625 0 L 1941.90625 1438.90625 L 0 1438.90625 Z M 0 0 "/>
<path style=" stroke:none;fill-rule:nonzero;fill:rgb(46.27451%,72.54902%,0%);fill-opacity:1;" d="M 896.503906 250.90625 C 1091.734375 251.125 1287.183594 250.6875 1482.414062 251.015625 C 1579.890625 254.625 1677.972656 247.347656 1775.339844 252.4375 C 1775.777344 561.554688 1775.886719 870.730469 1775.285156 1179.902344 C 1728.789062 1181.433594 1682.128906 1180.449219 1635.578125 1180.667969 C 1389.203125 1180.886719 1142.769531 1180.230469 896.394531 1180.996094 C 895.847656 1144.449219 896.667969 1107.957031 895.191406 1071.355469 C 806.136719 1063.53125 719.707031 1034.808594 645.207031 985.183594 C 525.355469 908.589844 436.300781 788.226562 379.300781 659.324219 C 376.675781 652.484375 373.996094 645.210938 374.050781 637.714844 C 382.582031 624.855469 395.710938 614.351562 407.472656 604.394531 C 466.386719 556.25 528.472656 511.277344 595.589844 475.222656 C 687.652344 424.722656 790.328125 384.839844 895.902344 377.890625 C 896.011719 400.046875 895.957031 422.207031 896.066406 444.363281 C 967.835938 439.332031 1037.851562 453.171875 1102.949219 483.210938 C 1173.457031 516.582031 1233.792969 565.660156 1285.542969 623.652344 C 1289.425781 628.6875 1294.402344 634.375 1295.824219 640.722656 C 1294.785156 648.109375 1288.714844 654.949219 1284.449219 660.855469 C 1234.285156 722.242188 1174.277344 781.003906 1105.902344 821.707031 C 1064.164062 847.53125 1017.394531 863.945312 968.273438 867.226562 C 943 868.597656 919.863281 862.6875 895.574219 856.941406 C 896.011719 879.265625 896.285156 901.53125 894.753906 923.855469 C 859.636719 913.734375 825.390625 904.542969 793.71875 885.664062 C 708.167969 837.136719 651.550781 753.8125 620.589844 661.953125 C 676.222656 605.707031 745.910156 565.550781 821.726562 543.390625 C 843.992188 536.71875 866.910156 533.925781 889.503906 528.839844 C 895.902344 527.308594 895.082031 521.671875 895.683594 516.308594 C 896.832031 492.402344 895.738281 468.328125 895.246094 444.363281 C 822.054688 452.625 751.160156 470.132812 686.230469 505.859375 C 623.980469 540.109375 565.011719 585.847656 521.578125 642.417969 C 511.296875 653.746094 519.117188 663.429688 522.835938 675.738281 C 565.339844 777.71875 632.515625 875.761719 726.109375 936.984375 C 777.472656 971.289062 835.347656 990.929688 896.121094 1000.449219 C 895.410156 973.804688 894.699219 947.542969 899.292969 921.117188 C 969.75 938.84375 1050.871094 919.914062 1116.789062 892.613281 C 1208.03125 853.660156 1291.777344 791.617188 1363.820312 723.9375 C 1392.703125 696.089844 1421.148438 668.242188 1445.761719 636.402344 C 1423.773438 609.8125 1401.234375 584.042969 1374.980469 561.554688 C 1304.523438 497.597656 1225.535156 445.347656 1136.042969 412.085938 C 1059.679688 383.308594 976.640625 371.105469 895.246094 376.414062 C 896.613281 334.558594 895.410156 292.761719 896.503906 250.90625 Z M 896.503906 250.90625 "/>
<path style=" stroke:none;fill-rule:nonzero;fill:rgb(3.137255%,3.137255%,3.137255%);fill-opacity:1;" d="M 920.738281 527.089844 C 954.214844 525.9375 989.660156 528.238281 1021.824219 538.140625 C 1082.324219 556.359375 1133.472656 593.179688 1175.261719 639.957031 C 1136.261719 674.207031 1096.328125 707.910156 1055.632812 740.132812 C 1033.148438 704.898438 1011.433594 661.515625 979.597656 634.046875 C 955.035156 612.929688 926.972656 607.570312 896.230469 601.386719 C 894.808594 576.21875 895.519531 551.488281 899.402344 526.542969 C 906.515625 526.761719 913.625 526.980469 920.738281 527.089844 Z M 920.738281 527.089844 "/>
<path style=" stroke:none;fill-rule:nonzero;fill:rgb(3.137255%,3.137255%,3.137255%);fill-opacity:1;" d="M 895.410156 600.019531 C 896.285156 685.148438 896.230469 770.335938 895.410156 855.464844 C 878.398438 849.007812 862.152344 843.101562 846.945312 832.761719 C 797.878906 798.128906 762.320312 748.503906 741.042969 692.644531 C 739.238281 685.476562 734.75 676.339844 740.660156 669.9375 C 779.386719 624.855469 835.347656 597.9375 895.410156 600.019531 Z M 895.410156 600.019531 "/>
<path style=" stroke:none;fill-rule:nonzero;fill:rgb(3.137255%,3.137255%,3.137255%);fill-opacity:1;" d="M 1508.503906 746.699219 C 1561.730469 778.210938 1619.058594 804.582031 1668.671875 841.570312 C 1592.855469 903.992188 1501.886719 944.207031 1410.753906 978.785156 C 1284.613281 1025.070312 1151.195312 1059.320312 1017.230469 1071.683594 C 976.640625 1076.992188 936.601562 1075.570312 895.902344 1073.324219 C 895.847656 1048.980469 895.847656 1024.6875 896.230469 1000.339844 C 1015.917969 1011.390625 1136.480469 986.117188 1243.585938 932.171875 C 1326.839844 890.535156 1400.304688 836.535156 1471.527344 777.0625 C 1483.726562 766.667969 1495.542969 756.164062 1508.503906 746.699219 Z M 1508.503906 746.699219 "/>
</g>
</svg>
