<?xml version="1.0" encoding="UTF-8" standalone="no"?>
<!DOCTYPE svg PUBLIC "-//W3C//DTD SVG 1.1//EN" "http://www.w3.org/Graphics/SVG/1.1/DTD/svg11.dtd">
<svg xmlns="http://www.w3.org/2000/svg" version="1.1" viewBox="0 0 758 278" width="758.0pt" height="278.0pt">
<path d="M 0.00 0.00 L 758.00 0.00 L 758.00 278.00 L 0.00 278.00 L 0.00 0.00 Z" fill="#080808" />
<path d="M 18.82 81.15 C 35.16 80.78 51.64 81.11 68.00 80.99 C 79.41 81.04 91.91 80.71 102.80 84.58 C 110.91 87.02 118.91 92.31 123.22 99.73 C 129.99 110.09 130.93 122.97 130.75 135.00 C 130.77 154.19 130.71 173.38 130.78 192.56 C 120.53 192.41 110.27 192.55 100.01 192.50 C 99.99 176.00 100.00 159.49 99.99 142.99 C 99.83 136.40 99.64 129.43 98.12 123.01 C 96.80 117.96 94.57 112.87 90.11 109.84 C 85.79 106.66 80.16 106.37 75.01 106.04 C 66.84 105.91 58.67 106.07 50.50 106.00 C 50.57 134.87 50.35 163.76 50.61 192.62 C 39.98 192.36 29.32 192.55 18.68 192.53 C 18.89 155.47 18.61 118.22 18.82 81.15 Z" fill="#ffffff" />
<path d="M 135.48 81.00 C 146.82 81.01 158.15 80.98 169.49 80.99 C 176.99 107.04 184.42 133.11 191.82 159.19 C 192.86 162.78 193.92 166.35 194.73 170.00 C 196.17 164.21 198.05 158.53 199.69 152.80 C 206.80 128.85 213.80 104.87 221.06 80.97 C 231.69 80.99 242.32 81.01 252.94 80.99 C 240.93 118.18 228.76 155.35 216.71 192.55 C 201.61 192.47 186.49 192.46 171.38 192.56 C 170.29 188.48 168.90 184.51 167.59 180.49 C 156.86 147.33 146.17 114.16 135.48 81.00 Z" fill="#ffffff" />
<path d="M 266.25 81.00 C 276.75 80.99 287.25 81.01 297.75 80.99 C 297.77 118.18 297.71 155.38 297.78 192.57 C 287.27 192.44 276.73 192.47 266.22 192.57 C 266.29 155.38 266.23 118.19 266.25 81.00 Z" fill="#ffffff" />
<path d="M 316.99 81.00 C 331.66 81.02 346.33 80.97 361.00 81.00 C 373.51 81.22 388.35 81.66 399.77 87.34 C 408.57 91.44 415.13 98.88 419.32 107.51 C 422.01 112.93 422.76 119.07 423.91 125.01 C 425.46 135.95 425.30 147.23 422.87 158.03 C 420.88 166.74 417.69 174.81 410.87 180.87 C 403.49 188.02 393.97 190.64 384.02 191.83 C 373.17 192.72 361.90 192.46 351.00 192.50 C 339.67 192.53 328.34 192.48 317.01 192.50 C 316.96 155.34 317.01 118.17 316.99 81.00 Z" fill="#ffffff" />
<path d="M 439.74 80.99 C 450.25 81.02 460.76 81.00 471.27 80.96 C 471.25 118.14 471.20 155.34 471.30 192.52 C 460.77 192.49 450.23 192.48 439.70 192.52 C 439.80 155.35 439.73 118.16 439.74 80.99 Z" fill="#ffffff" />
<path d="M 529.03 81.28 C 542.65 81.20 556.31 81.29 569.93 81.23 C 583.09 114.07 596.09 146.99 609.20 179.84 C 610.93 184.12 612.48 188.41 614.47 192.58 C 603.12 192.44 591.74 192.48 580.38 192.55 C 578.46 185.89 576.15 179.32 573.96 172.74 C 556.65 172.76 539.34 172.75 522.03 172.75 C 519.63 179.32 517.39 185.97 514.92 192.52 C 504.61 192.47 494.29 192.49 483.98 192.54 C 498.26 156.34 512.59 120.16 526.90 83.98 C 527.44 83.15 527.71 80.93 529.03 81.28 Z" fill="#ffffff" />
<path d="M 548.23 101.11 C 554.52 118.73 561.00 136.31 567.63 153.80 C 554.65 153.70 541.66 153.77 528.68 153.77 C 535.23 136.24 542.02 118.77 548.23 101.11 Z" fill="#080808" />
<path d="M 348.26 105.26 C 356.67 105.29 365.88 104.80 374.03 106.77 C 381.95 108.49 388.70 114.80 391.73 122.20 C 394.46 130.49 394.78 139.34 392.90 147.84 C 391.40 156.13 385.07 163.38 377.19 166.25 C 368.12 169.53 357.63 168.54 348.17 168.83 C 348.37 147.65 348.16 126.44 348.26 105.26 Z" fill="#080808" />
<path d="M 628.46 176.64 C 631.89 176.06 635.37 176.61 638.01 178.99 C 642.18 182.77 642.06 190.15 637.64 193.68 C 632.48 197.86 623.73 196.30 621.30 189.82 C 619.27 183.98 622.25 177.85 628.46 176.64 Z" fill="#ffffff" />
<path d="M 627.45 179.48 C 630.24 178.07 633.97 178.50 636.12 180.88 C 639.41 184.35 638.52 191.05 633.96 193.02 C 630.98 194.54 627.12 193.50 625.07 190.93 C 622.48 187.41 623.33 181.47 627.45 179.48 Z" fill="#080808" />
<path d="M 626.75 180.98 C 629.14 181.19 633.05 180.32 634.87 182.17 C 636.28 184.80 634.91 185.68 633.06 187.25 C 633.94 188.73 634.80 190.22 635.64 191.73 C 631.82 191.85 631.71 188.71 629.41 186.45 C 629.31 188.13 629.24 189.81 629.19 191.50 L 626.76 191.49 C 626.75 187.99 626.75 184.48 626.75 180.98 Z" fill="#ffffff" />
<path d="M 629.43 182.71 C 630.59 182.70 631.73 182.80 632.87 183.02 C 633.37 185.93 630.99 184.86 629.11 185.45 C 629.19 184.53 629.30 183.62 629.43 182.71 Z" fill="#080808" />
</svg>