<?xml version="1.0" standalone="no"?>
<!DOCTYPE svg PUBLIC "-//W3C//DTD SVG 20010904//EN"
 "http://www.w3.org/TR/2001/REC-SVG-20010904/DTD/svg10.dtd">
<svg version="1.0" xmlns="http://www.w3.org/2000/svg"
 width="1160.000000pt" height="302.000000pt" viewBox="0 0 1160.000000 302.000000"
 preserveAspectRatio="xMidYMid meet">

<g transform="translate(0.000000,302.000000) scale(0.100000,-0.100000)"
fill="#76b900" stroke="none">

<path
d="M0 1510 l0 -1510 5800 0 5800 0 0 1510 0 1510 -5800 0 -5800 0 0
-1510z m3398 13 l-3 -848 -797 -2 -798 -1 0 96 0 97 70 -3 c235 -11 704 97
1011 233 134 59 296 155 321 189 12 18 15 16 -233 154 l-55 31 -25 -22 c-108
-101 -315 -245 -445 -310 -177 -90 -318 -126 -514 -133 -82 -3 -127 -9 -133
-17 -4 -6 -6 -33 -4 -59 l4 -48 -33 0 c-18 0 -68 8 -111 19 -316 75 -585 305
-757 648 -25 50 -46 100 -46 110 0 36 248 220 420 311 161 86 361 153 484 164
l39 3 1 -56 1 -56 -75 -13 c-216 -36 -420 -144 -563 -300 -68 -73 -68 -70 -2
-204 133 -265 326 -433 565 -492 83 -20 80 -22 80 54 l0 67 108 0 c170 1 327
57 518 185 149 101 374 311 374 350 0 7 -43 54 -95 105 -243 237 -549 374
-837 375 l-68 0 0 110 0 110 800 0 800 0 -2 -847z m1252 498 c154 -54 225
-126 276 -281 15 -48 18 -103 22 -432 l3 -378 -154 0 -155 0 -4 333 c-5 360
-9 392 -63 462 -46 62 -71 68 -257 73 l-168 4 0 -436 0 -436 -160 0 -160 0 0
561 0 561 378 -4 c360 -4 380 -5 442 -27z m811 -410 c68 -241 125 -438 127
-436 1 1 54 177 118 391 63 214 122 410 130 437 l16 47 160 0 c137 0 159 -2
154 -15 -3 -8 -64 -196 -136 -417 -72 -222 -152 -467 -178 -545 l-46 -143
-226 0 -226 0 -10 37 c-6 21 -86 269 -177 552 -92 282 -167 517 -167 522 0 5
76 9 168 9 l168 0 125 -439z m1159 -121 l0 -560 -160 0 -160 0 0 560 0 560
160 0 160 0 0 -560z m904 536 c199 -47 314 -176 350 -395 27 -161 15 -314 -34
-443 -27 -72 -105 -160 -171 -194 -95 -48 -150 -54 -516 -61 l-343 -6 0 562 0
563 323 -5 c249 -4 338 -8 391 -21z m826 -536 l0 -560 -155 0 -155 0 0 560 0
560 155 0 155 0 0 -560z m1205 16 c118 -297 217 -548 221 -558 5 -17 -5 -18
-163 -18 l-168 0 -30 98 -31 97 -263 0 -263 0 -35 -97 -35 -98 -155 0 c-120 0
-154 3 -150 13 3 6 59 149 125 317 66 168 160 406 209 530 50 124 93 233 96
243 6 16 23 17 217 15 l211 -3 214 -539z m-7595 500 c136 -22 247 -67 355
-144 51 -36 215 -191 215 -203 0 -19 -160 -186 -234 -244 -150 -120 -242 -159
-376 -159 -47 -1 -93 2 -102 6 -16 7 -18 28 -18 237 l0 229 33 -8 c92 -21 136
-57 208 -170 24 -38 48 -70 52 -70 10 0 199 158 209 176 10 16 -75 93 -151
138 -84 49 -146 67 -253 73 l-98 6 0 67 c0 37 3 70 7 73 10 11 60 8 153 -7z
m-167 -208 c-1 -37 -6 -62 -12 -61 -23 6 -119 -21 -162 -44 -26 -14 -64 -42
-85 -64 l-37 -38 37 -76 c46 -94 139 -195 206 -227 45 -21 49 -26 50 -58 0
-19 3 -46 7 -59 6 -23 5 -24 -33 -17 -21 4 -76 25 -122 47 -148 71 -284 232
-333 392 -7 25 -4 33 24 59 84 79 232 156 362 189 105 26 100 28 98 -43z
m8202 -713 c92 -44 66 -171 -37 -182 -42 -5 -50 -3 -78 25 -51 51 -39 130 23
157 41 18 52 18 92 0z"/>

<path
d="M7120 1490 l0 -323 118 6 c65 3 136 13 161 22 128 45 189 155 179
323 -9 138 -69 230 -177 267 -25 9 -98 19 -163 22 l-118 6 0 -323z"/>

<path d="M9116 1824 c-27 -67 -186 -495 -186 -499 0 -3 86 -5 190 -5 105 0
190 4 190 8 0 4 -40 116 -88 247 -49 132 -91 247 -94 254 -3 12 -6 10 -12 -5z"/>

<path d="M9900 1050 c-26 -26 -26 -81 0 -105 29 -26 79 -24 102 4 39 50 9 121
-52 121 -17 0 -39 -9 -50 -20z m87 -16 c3 -9 1 -24 -5 -34 -6 -10 -7 -22 -1
-31 12 -19 11 -29 -1 -29 -6 0 -16 11 -22 25 -6 14 -15 25 -20 25 -4 0 -8 -11
-8 -25 0 -14 -4 -25 -10 -25 -5 0 -10 25 -10 55 l0 55 35 0 c24 0 38 -5 42
-16z"/>

<path d="M9930 1020 c0 -5 9 -10 20 -10 11 0 20 5 20 10 0 6 -9 10 -20 10 -11
0 -20 -4 -20 -10z"/>

</g>
</svg>
