<?xml version="1.0" encoding="UTF-8" standalone="no"?>
<!DOCTYPE svg PUBLIC "-//W3C//DTD SVG 1.1//EN" "http://www.w3.org/Graphics/SVG/1.1/DTD/svg11.dtd">
<svg xmlns="http://www.w3.org/2000/svg" version="1.1" viewBox="0 0 652 644" width="652.0pt" height="644.0pt">
<path d="M 0.00 0.00 L 408.12 0.00 C 406.12 3.33 404.03 6.22 400.99 8.69 C 400.80 10.00 400.55 11.29 400.24 12.57 C 399.70 12.26 399.15 11.95 398.61 11.64 C 399.00 13.78 397.51 14.03 396.14 15.17 C 394.11 16.37 394.91 18.76 394.66 20.75 C 394.96 19.34 395.26 17.93 395.56 16.52 C 397.56 17.19 397.11 17.85 397.95 15.78 C 402.74 10.75 406.04 3.63 411.82 0.00 L 652.00 0.00 L 652.00 644.00 L 69.49 644.00 C 70.69 639.89 72.64 636.28 73.29 632.05 C 74.59 624.64 77.86 618.00 79.56 610.69 C 83.66 600.31 85.93 589.39 90.00 579.00 C 91.23 575.48 91.95 571.83 93.43 568.38 C 96.64 560.68 98.70 552.53 101.71 544.78 C 106.66 531.97 111.12 518.94 116.42 506.29 C 117.74 502.03 118.98 497.79 120.85 493.72 C 126.13 499.25 131.04 505.15 136.39 510.61 C 141.99 516.02 147.92 521.06 153.60 526.38 C 159.08 530.94 164.99 534.99 170.64 539.34 C 177.05 544.39 184.49 548.23 191.40 552.61 C 198.59 557.33 206.77 560.61 214.52 564.50 C 222.30 568.58 230.66 570.86 238.88 574.14 C 245.43 576.80 252.19 578.10 258.99 579.92 C 264.10 581.13 268.86 582.70 274.01 583.41 C 285.02 584.97 295.87 587.13 307.00 587.66 C 322.80 588.50 338.81 588.39 354.51 586.32 C 364.65 584.51 375.14 583.74 385.00 580.85 C 393.11 578.64 401.15 577.07 408.99 573.99 C 417.40 570.81 426.13 568.16 434.01 564.02 C 439.80 561.11 445.78 558.55 451.45 555.44 C 458.29 551.28 465.19 547.19 471.96 542.93 C 478.14 538.48 484.19 533.83 490.32 529.31 C 496.43 524.50 501.91 518.86 507.79 513.78 C 510.13 511.77 512.28 509.64 514.31 507.30 C 519.41 501.45 524.96 495.92 529.84 489.88 C 534.23 483.92 538.74 478.04 543.13 472.08 C 546.85 466.43 550.19 460.52 553.76 454.78 C 558.19 447.97 561.26 440.23 564.96 432.97 C 569.17 424.95 571.57 416.52 574.86 407.99 C 578.22 399.66 579.77 390.75 582.22 382.00 C 584.18 375.41 584.73 368.76 585.85 362.00 C 589.71 339.99 589.71 317.20 587.56 295.00 C 586.27 286.67 585.09 278.31 583.70 269.99 C 582.13 262.92 580.08 255.95 578.39 248.90 C 577.11 243.39 575.00 238.29 573.06 232.99 C 570.66 226.69 568.80 220.35 565.64 214.35 C 561.44 206.05 558.16 197.73 553.08 189.96 C 548.94 183.47 545.36 176.47 540.61 170.42 C 534.75 162.83 529.63 154.96 522.92 148.05 C 517.58 142.55 513.12 136.61 507.34 131.67 C 501.97 127.05 496.98 121.98 491.50 117.51 C 486.03 113.32 480.44 109.28 474.96 105.09 C 470.93 101.98 466.46 99.62 462.06 96.87 C 456.36 93.51 451.02 89.77 444.92 87.10 C 436.94 83.48 429.18 79.03 420.90 76.25 C 416.94 74.79 412.97 73.36 409.01 71.90 C 400.75 68.57 391.74 66.97 383.11 64.55 C 376.61 62.63 370.01 61.97 363.35 60.94 C 364.19 57.34 367.40 54.75 369.41 51.54 C 372.30 48.00 375.08 44.39 377.90 40.80 C 379.93 38.40 382.08 36.20 383.62 33.43 C 381.64 33.82 380.64 34.63 379.32 36.12 C 378.56 37.14 377.81 38.16 377.06 39.19 C 375.39 41.76 373.58 44.12 371.57 46.44 C 368.63 50.21 365.93 54.19 362.94 57.92 C 362.02 58.89 360.54 60.56 359.07 60.18 C 338.93 57.22 318.27 57.11 298.01 58.94 C 289.31 59.99 280.66 61.48 272.00 62.80 C 264.23 64.41 256.58 66.64 248.89 68.55 C 243.69 69.78 238.88 71.82 233.87 73.61 C 227.50 75.98 221.13 77.96 215.08 81.10 C 207.36 85.00 199.16 88.29 191.96 92.90 C 186.38 96.37 180.69 99.66 175.17 103.21 C 170.15 106.81 165.28 110.64 160.29 114.28 C 153.69 118.88 148.10 124.72 142.02 130.03 C 135.16 135.93 129.49 142.77 123.41 149.43 C 117.65 155.35 113.04 162.45 107.99 169.00 C 102.52 175.85 98.59 183.45 93.86 190.93 C 89.05 198.36 85.76 206.77 81.68 214.75 C 78.65 220.46 76.94 226.50 74.63 232.51 C 72.98 237.30 70.91 242.01 69.66 246.91 C 68.03 253.27 66.45 259.65 64.76 266.00 C 63.13 271.84 62.72 278.03 61.65 284.02 C 57.93 305.16 57.90 327.18 59.71 348.52 C 60.59 355.70 61.89 362.84 62.88 370.00 C 63.89 378.30 66.62 386.40 68.53 394.54 C 70.45 403.30 74.04 411.37 77.04 419.97 C 79.85 428.40 84.16 435.90 87.93 444.05 C 91.08 451.07 95.31 457.12 99.24 463.79 C 104.64 473.39 111.99 481.87 118.43 490.87 C 116.34 497.97 112.41 504.24 110.42 511.37 C 109.45 515.01 107.66 518.32 106.68 521.95 C 105.67 525.39 103.87 528.49 102.82 531.93 C 101.64 535.66 100.51 539.39 99.01 543.00 C 97.55 546.45 97.00 550.16 95.58 553.61 C 90.97 563.77 88.13 574.78 84.37 585.29 C 81.65 594.22 78.36 602.95 75.70 611.91 C 73.48 618.18 72.30 624.72 69.91 630.95 C 68.22 635.20 67.55 639.68 66.13 644.00 L 0.00 644.00 L 0.00 0.00 Z" fill="#092527" />
<path d="M 408.12 0.00 L 411.82 0.00 C 406.04 3.63 402.74 10.75 397.95 15.78 C 397.40 14.97 396.79 14.77 396.14 15.17 C 397.51 14.03 399.00 13.78 398.61 11.64 C 399.15 11.95 399.70 12.26 400.24 12.57 C 400.55 11.29 400.80 10.00 400.99 8.69 C 404.03 6.22 406.12 3.33 408.12 0.00 Z" fill="#76b900" />
<path d="M 396.14 15.17 C 396.40 15.97 397.00 16.18 397.95 15.78 C 397.11 17.85 397.56 17.19 395.56 16.52 C 395.26 17.93 394.96 19.34 394.66 20.75 C 394.91 18.76 394.11 16.37 396.14 15.17 Z" fill="#76b900" />
<path d="M 396.14 15.17 C 396.79 14.77 397.40 14.97 397.95 15.78 C 397.00 16.18 396.40 15.97 396.14 15.17 Z" fill="#092527" />
<path d="M 392.53 18.64 L 392.51 18.85 L 392.49 19.04 L 392.25 21.03 C 391.23 21.68 390.18 22.29 389.13 22.91 C 389.74 22.25 390.31 21.54 390.83 20.79 C 391.28 20.79 391.74 20.80 392.19 20.81 L 392.51 18.78 L 392.53 18.64 Z" fill="#76b900" />
<path d="M 389.13 22.91 C 390.03 23.75 390.33 25.51 388.85 25.88 C 387.25 25.44 388.19 23.58 389.13 22.91 Z" fill="#76b900" />
<path d="M 386.42 26.25 C 386.07 28.34 385.88 30.44 385.31 32.49 C 384.75 32.16 384.19 31.84 383.63 31.51 C 383.91 31.45 384.18 31.39 384.46 31.33 C 385.05 29.90 385.64 28.47 386.17 27.02 L 386.42 26.25 Z" fill="#76b900" />
<path d="M 383.62 33.43 C 382.08 36.20 379.93 38.40 377.90 40.80 C 378.46 39.74 378.18 39.20 377.06 39.19 C 377.81 38.16 378.56 37.14 379.32 36.12 C 379.27 38.86 382.07 36.47 380.07 35.71 L 379.32 36.12 C 380.64 34.63 381.64 33.82 383.62 33.43 Z" fill="#76b900" />
<path d="M 379.32 36.12 L 380.07 35.71 C 382.07 36.47 379.27 38.86 379.32 36.12 Z" fill="#092527" />
<path d="M 377.06 39.19 C 376.53 40.26 376.81 40.80 377.90 40.80 C 375.08 44.39 372.30 48.00 369.41 51.54 C 367.40 54.75 364.19 57.34 363.35 60.94 C 370.01 61.97 376.61 62.63 383.11 64.55 C 391.74 66.97 400.75 68.57 409.01 71.90 C 412.97 73.36 416.94 74.79 420.90 76.25 C 429.18 79.03 436.94 83.48 444.92 87.10 C 451.02 89.77 456.36 93.51 462.06 96.87 C 466.46 99.62 470.93 101.98 474.96 105.09 C 480.44 109.28 486.03 113.32 491.50 117.51 C 496.98 121.98 501.97 127.05 507.34 131.67 C 513.12 136.61 517.58 142.55 522.92 148.05 C 529.63 154.96 534.75 162.83 540.61 170.42 C 545.36 176.47 548.94 183.47 553.08 189.96 C 558.16 197.73 561.44 206.05 565.64 214.35 C 568.80 220.35 570.66 226.69 573.06 232.99 C 575.00 238.29 577.11 243.39 578.39 248.90 C 580.08 255.95 582.13 262.92 583.70 269.99 C 585.09 278.31 586.27 286.67 587.56 295.00 C 589.71 317.20 589.71 339.99 585.85 362.00 C 584.73 368.76 584.18 375.41 582.22 382.00 C 579.77 390.75 578.22 399.66 574.86 407.99 C 571.57 416.52 569.17 424.95 564.96 432.97 C 561.26 440.23 558.19 447.97 553.76 454.78 C 550.19 460.52 546.85 466.43 543.13 472.08 C 538.74 478.04 534.23 483.92 529.84 489.88 C 524.96 495.92 519.41 501.45 514.31 507.30 C 512.28 509.64 510.13 511.77 507.79 513.78 C 501.91 518.86 496.43 524.50 490.32 529.31 C 484.19 533.83 478.14 538.48 471.96 542.93 C 465.19 547.19 458.29 551.28 451.45 555.44 C 445.78 558.55 439.80 561.11 434.01 564.02 C 426.13 568.16 417.40 570.81 408.99 573.99 C 401.15 577.07 393.11 578.64 385.00 580.85 C 375.14 583.74 364.65 584.51 354.51 586.32 C 338.81 588.39 322.80 588.50 307.00 587.66 C 295.87 587.13 285.02 584.97 274.01 583.41 C 268.86 582.70 264.10 581.13 258.99 579.92 C 252.19 578.10 245.43 576.80 238.88 574.14 C 230.66 570.86 222.30 568.58 214.52 564.50 C 206.77 560.61 198.59 557.33 191.40 552.61 C 184.49 548.23 177.05 544.39 170.64 539.34 C 164.99 534.99 159.08 530.94 153.60 526.38 C 147.92 521.06 141.99 516.02 136.39 510.61 C 131.04 505.15 126.13 499.25 120.85 493.72 C 120.01 492.80 119.21 491.85 118.43 490.87 C 111.99 481.87 104.64 473.39 99.24 463.79 C 95.31 457.12 91.08 451.07 87.93 444.05 C 84.16 435.90 79.85 428.40 77.04 419.97 C 74.04 411.37 70.45 403.30 68.53 394.54 C 66.62 386.40 63.89 378.30 62.88 370.00 C 61.89 362.84 60.59 355.70 59.71 348.52 C 57.90 327.18 57.93 305.16 61.65 284.02 C 62.72 278.03 63.13 271.84 64.76 266.00 C 66.45 259.65 68.03 253.27 69.66 246.91 C 70.91 242.01 72.98 237.30 74.63 232.51 C 76.94 226.50 78.65 220.46 81.68 214.75 C 85.76 206.77 89.05 198.36 93.86 190.93 C 98.59 183.45 102.52 175.85 107.99 169.00 C 113.04 162.45 117.65 155.35 123.41 149.43 C 129.49 142.77 135.16 135.93 142.02 130.03 C 148.10 124.72 153.69 118.88 160.29 114.28 C 165.28 110.64 170.15 106.81 175.17 103.21 C 180.69 99.66 186.38 96.37 191.96 92.90 C 199.16 88.29 207.36 85.00 215.08 81.10 C 221.13 77.96 227.50 75.98 233.87 73.61 C 238.88 71.82 243.69 69.78 248.89 68.55 C 256.58 66.64 264.23 64.41 272.00 62.80 C 280.66 61.48 289.31 59.99 298.01 58.94 C 318.27 57.11 338.93 57.22 359.07 60.18 C 360.54 60.56 362.02 58.89 362.94 57.92 C 365.93 54.19 368.63 50.21 371.57 46.44 C 373.58 44.12 375.39 41.76 377.06 39.19 Z" fill="#76b900" />
<path d="M 377.06 39.19 C 378.18 39.20 378.46 39.74 377.90 40.80 C 376.81 40.80 376.53 40.26 377.06 39.19 Z" fill="#092527" />
<path d="M 348.24 73.03 C 348.38 73.61 348.50 74.20 348.60 74.79 C 344.87 81.97 338.84 88.05 334.75 94.89 C 332.24 94.78 329.89 94.55 327.42 95.21 C 327.42 95.94 327.43 96.68 327.44 97.41 C 329.01 97.58 330.57 97.76 332.15 97.89 C 328.65 101.93 326.24 106.72 322.82 110.84 C 316.63 119.96 310.54 129.13 304.12 138.09 C 301.10 143.33 297.42 148.10 294.32 153.28 C 292.47 156.38 289.90 158.95 288.12 162.08 C 281.81 173.60 273.74 183.87 267.35 195.35 C 258.48 208.46 250.86 222.21 242.83 235.83 C 239.45 240.85 236.40 246.10 233.38 251.35 C 230.21 257.33 227.63 263.23 223.13 268.43 C 221.07 262.88 217.97 256.52 213.01 253.02 C 209.90 250.64 205.77 250.66 202.36 252.37 C 197.62 254.59 194.61 259.89 192.65 264.51 C 190.89 269.17 189.67 274.04 188.19 278.80 C 182.22 279.15 176.65 279.86 172.05 284.07 C 164.62 290.34 161.62 297.85 153.41 302.41 C 147.50 305.93 141.09 306.55 134.34 306.60 C 134.28 307.74 134.22 308.89 134.15 310.03 C 144.39 310.59 155.62 307.47 162.64 299.64 C 166.39 295.72 169.41 291.03 173.42 287.38 C 177.28 284.07 182.20 282.34 187.27 282.20 C 185.15 290.17 183.69 298.19 181.13 306.05 C 176.16 306.34 171.21 306.47 166.24 306.52 C 166.02 307.66 165.89 308.83 165.85 310.01 C 170.57 310.25 175.26 309.98 179.97 309.73 C 177.30 317.34 175.15 324.35 169.09 330.09 C 166.28 332.74 162.83 333.92 159.06 334.42 C 158.96 335.62 158.88 336.82 158.80 338.02 C 163.82 337.41 168.49 335.75 172.06 332.05 C 178.23 325.84 181.29 317.12 183.95 308.97 C 191.13 307.95 198.05 306.20 204.39 302.57 C 204.47 304.79 202.77 306.86 201.86 308.85 C 197.65 317.27 193.31 325.56 188.85 333.84 C 183.07 347.41 175.40 360.08 169.60 373.62 C 165.25 381.25 162.55 389.59 158.34 397.29 C 156.20 402.47 153.33 407.26 151.56 412.58 C 147.55 421.30 143.56 430.06 140.08 439.00 C 138.69 442.50 136.46 444.91 136.04 448.72 L 134.74 450.35 C 131.91 458.88 127.75 466.91 124.71 475.42 C 120.71 470.06 116.29 464.80 112.97 459.02 C 110.23 454.44 107.43 449.90 104.66 445.34 C 101.94 440.93 99.96 436.03 97.61 431.39 C 95.21 426.24 92.52 421.50 90.74 416.10 C 88.64 410.00 86.23 404.00 84.16 397.88 C 82.46 392.15 81.19 386.28 79.60 380.51 C 76.80 370.98 76.12 360.84 74.36 351.02 C 71.97 329.42 72.08 307.32 75.74 285.87 C 76.70 280.18 77.19 274.43 78.67 268.91 C 79.78 264.61 80.87 260.30 82.01 256.00 C 84.50 245.29 88.94 235.06 92.70 224.74 C 97.45 215.22 101.46 205.15 107.26 196.25 C 110.87 190.55 114.07 184.48 118.15 179.10 C 122.51 173.47 126.59 167.59 131.09 162.07 C 137.73 155.05 143.83 147.39 151.02 141.04 C 155.24 137.26 159.41 133.43 163.63 129.65 C 169.23 125.22 175.07 121.08 180.74 116.73 C 186.58 112.48 193.02 109.04 199.13 105.18 C 205.57 101.04 212.82 98.17 219.71 94.66 C 227.55 90.52 235.76 88.27 243.99 85.03 C 249.53 82.78 255.26 81.65 261.01 80.10 C 266.78 78.70 272.13 77.00 277.99 76.23 C 284.68 75.32 291.32 74.07 298.01 73.23 C 314.73 71.49 331.50 71.60 348.24 73.03 Z" fill="#092527" />
<path d="M 348.24 73.03 C 350.20 73.26 352.14 73.60 354.09 73.92 C 348.74 80.82 343.59 87.94 338.64 95.13 C 337.35 95.05 336.05 94.97 334.75 94.89 C 338.84 88.05 344.87 81.97 348.60 74.79 C 348.50 74.20 348.38 73.61 348.24 73.03 Z" fill="#133924" />
<path d="M 354.09 73.92 C 361.35 75.13 368.70 75.88 375.90 77.39 C 381.95 78.89 387.97 80.48 394.00 82.03 C 401.13 83.72 407.97 86.83 414.91 89.22 C 422.83 91.78 429.98 95.87 437.63 99.39 C 445.13 102.74 452.04 107.56 459.19 111.77 C 466.02 115.62 472.09 120.93 478.49 125.51 C 483.76 129.20 488.33 133.58 493.03 137.95 C 496.66 141.38 500.56 144.36 503.82 148.17 C 509.82 155.10 516.14 161.05 521.46 168.53 C 526.06 174.95 531.33 181.04 535.18 187.89 C 539.23 194.82 543.96 201.53 547.21 208.85 C 549.75 214.27 552.49 219.60 554.95 225.05 C 557.05 230.32 558.88 235.70 560.89 241.01 C 564.69 250.59 566.61 260.96 569.35 270.91 C 571.00 279.58 572.08 288.38 573.48 297.09 C 575.44 317.93 575.40 339.34 571.78 360.00 C 570.72 366.19 570.18 372.54 568.46 378.53 C 566.77 384.86 565.23 391.24 563.49 397.55 C 561.60 403.25 559.33 408.82 557.37 414.48 C 554.78 422.18 550.92 429.01 547.47 436.47 C 544.14 444.06 539.37 450.81 535.13 458.07 C 531.16 465.02 526.15 470.87 521.38 477.42 C 516.29 484.68 509.58 491.04 503.76 497.77 C 500.51 501.59 496.62 504.48 493.00 508.00 C 488.18 512.35 483.69 516.75 478.45 520.42 C 471.88 525.12 466.06 530.24 459.11 534.18 C 451.61 538.54 444.80 543.38 436.90 546.85 C 429.61 550.17 422.99 554.00 415.46 556.48 C 408.02 559.02 400.63 562.33 393.01 564.10 C 386.67 565.67 380.37 567.46 374.00 568.88 C 365.66 570.32 357.24 571.54 348.86 572.70 C 328.35 574.66 307.33 574.54 287.00 571.00 C 280.19 569.91 273.54 569.26 266.92 567.31 C 258.86 565.08 250.55 563.52 242.86 560.42 C 234.97 557.41 227.23 555.13 219.80 551.28 C 212.94 547.80 205.67 544.89 199.25 540.74 C 195.52 538.46 191.76 536.22 188.02 533.95 C 181.26 530.00 175.19 524.79 168.81 520.22 C 162.34 515.69 157.09 510.06 151.08 504.90 C 144.43 499.13 139.08 492.34 133.04 485.98 C 130.72 483.59 128.72 480.96 126.80 478.24 C 130.61 470.51 133.36 462.30 137.02 454.49 C 139.64 457.81 141.91 461.40 144.81 464.45 C 145.47 463.86 146.13 463.27 146.78 462.68 C 144.02 458.80 141.02 455.11 138.45 451.09 C 140.84 443.58 144.85 436.84 147.48 429.44 C 149.59 424.26 152.35 419.36 154.18 414.09 C 155.08 411.49 156.60 409.32 157.78 406.86 C 160.63 400.68 163.20 394.34 166.35 388.30 C 169.56 381.72 171.71 374.89 175.51 368.55 C 180.08 358.62 184.99 348.81 190.21 339.20 C 191.29 336.93 192.07 334.59 193.41 332.42 C 196.46 327.61 198.52 322.29 201.38 317.36 C 204.70 311.74 207.93 305.86 210.00 299.66 C 210.81 298.75 211.61 297.83 212.41 296.92 C 217.75 302.17 223.61 307.13 231.18 308.59 C 233.93 316.63 237.36 326.37 243.85 332.16 C 249.13 336.95 256.68 339.50 263.54 336.68 C 269.98 334.31 274.07 328.96 277.13 323.07 C 281.39 314.66 283.95 304.90 286.25 295.79 C 292.73 300.06 299.82 304.70 307.44 306.53 C 314.83 308.48 322.62 310.01 330.30 309.84 C 333.05 317.35 336.28 326.22 342.19 331.83 C 345.74 335.46 350.94 337.68 355.99 337.93 C 362.37 337.92 368.42 334.15 372.11 329.07 C 378.87 320.54 381.16 308.41 384.20 298.12 C 388.66 293.64 391.71 287.96 397.09 285.17 C 404.67 280.93 414.79 281.62 422.18 286.00 C 424.97 296.12 427.14 306.19 431.27 315.89 C 433.66 322.38 436.83 328.30 442.00 333.00 C 445.93 336.05 450.92 338.29 456.00 337.82 C 461.50 337.26 466.74 334.58 469.99 330.03 C 475.24 323.56 478.04 316.02 480.17 308.07 C 480.93 307.77 481.69 307.46 482.45 307.14 C 490.92 309.68 500.29 310.28 509.10 310.04 C 509.09 308.99 509.10 307.94 509.11 306.89 C 506.40 306.64 503.71 306.53 500.99 306.51 C 496.33 306.48 491.48 305.36 486.81 304.84 C 491.95 301.46 495.23 296.78 499.28 292.30 C 501.76 289.53 503.60 286.75 507.02 285.02 C 510.58 283.01 514.37 282.27 518.43 282.17 C 518.37 281.05 518.36 279.93 518.41 278.81 C 512.46 278.96 506.81 280.20 502.24 284.23 C 497.01 288.96 493.00 295.01 487.80 299.79 C 486.01 301.43 483.89 302.45 481.63 303.27 C 483.72 295.58 485.55 287.86 487.40 280.11 C 489.88 272.20 491.30 263.41 497.29 257.28 C 498.80 255.57 500.73 255.12 502.81 254.47 C 502.83 253.32 502.88 252.16 502.97 251.00 C 497.17 251.81 492.48 256.17 490.27 261.45 C 484.28 274.24 482.00 289.04 478.17 302.59 C 462.72 298.04 452.12 283.13 436.71 280.47 C 432.45 279.51 428.28 279.00 423.91 279.00 C 420.95 270.66 419.45 261.55 412.88 255.11 C 409.88 252.10 406.17 250.24 401.88 251.59 C 395.95 253.17 393.10 258.41 390.53 263.49 C 385.90 273.62 384.40 285.51 381.10 295.76 C 377.32 297.28 374.20 299.87 370.47 301.48 C 363.10 304.55 354.95 305.99 346.99 306.23 C 340.90 305.43 335.94 303.58 330.92 300.03 C 327.47 289.02 325.33 277.61 321.23 266.85 C 319.10 261.51 315.88 255.25 310.67 252.35 C 305.33 249.47 299.17 252.34 295.77 256.79 C 290.47 263.46 288.82 273.54 286.16 281.57 C 283.60 282.69 281.64 284.35 279.77 286.37 C 276.10 284.97 273.08 282.60 269.26 281.56 C 259.54 278.64 248.95 278.19 238.94 279.62 C 234.91 280.06 231.28 281.71 227.32 282.42 C 226.37 279.15 225.60 275.82 224.61 272.56 C 228.55 268.23 230.51 262.84 233.70 257.75 C 237.89 251.14 241.62 244.27 245.35 237.40 C 250.40 229.91 254.69 221.99 259.23 214.20 C 264.75 206.52 268.76 197.94 274.32 190.30 C 280.99 178.74 288.51 168.07 296.11 157.01 C 304.67 142.70 314.46 128.73 324.31 115.29 C 325.95 113.18 327.24 110.88 328.59 108.59 C 330.77 104.79 334.09 101.94 336.05 97.97 C 338.74 98.03 341.48 98.33 344.16 98.15 C 346.75 94.60 340.54 95.58 338.64 95.13 C 343.59 87.94 348.74 80.82 354.09 73.92 Z" fill="#092527" />
<path d="M 310.12 95.12 C 310.43 96.00 310.53 96.96 310.42 97.98 C 304.85 98.05 299.36 99.12 293.81 99.26 C 292.49 96.87 294.04 96.54 295.98 96.31 C 300.68 95.85 305.40 95.29 310.12 95.12 Z" fill="#76b900" />
<path d="M 327.42 95.21 C 329.89 94.55 332.24 94.78 334.75 94.89 C 336.05 94.97 337.35 95.05 338.64 95.13 C 340.54 95.58 346.75 94.60 344.16 98.15 C 341.48 98.33 338.74 98.03 336.05 97.97 C 334.75 97.94 333.45 97.91 332.15 97.89 C 330.57 97.76 329.01 97.58 327.44 97.41 C 327.43 96.68 327.42 95.94 327.42 95.21 Z" fill="#76b900" />
<path d="M 332.15 97.89 C 333.45 97.91 334.75 97.94 336.05 97.97 C 334.09 101.94 330.77 104.79 328.59 108.59 C 327.24 110.88 325.95 113.18 324.31 115.29 C 314.46 128.73 304.67 142.70 296.11 157.01 C 288.51 168.07 280.99 178.74 274.32 190.30 C 268.76 197.94 264.75 206.52 259.23 214.20 C 254.69 221.99 250.40 229.91 245.35 237.40 C 241.62 244.27 237.89 251.14 233.70 257.75 C 230.51 262.84 228.55 268.23 224.61 272.56 C 224.14 271.18 223.64 269.80 223.13 268.43 C 227.63 263.23 230.21 257.33 233.38 251.35 C 236.40 246.10 239.45 240.85 242.83 235.83 C 250.86 222.21 258.48 208.46 267.35 195.35 C 273.74 183.87 281.81 173.60 288.12 162.08 C 289.90 158.95 292.47 156.38 294.32 153.28 C 297.42 148.10 301.10 143.33 304.12 138.09 C 310.54 129.13 316.63 119.96 322.82 110.84 C 326.24 106.72 328.65 101.93 332.15 97.89 Z" fill="#153726" />
<path d="M 361.80 97.90 C 367.39 98.61 372.80 100.02 378.31 101.13 C 378.12 102.09 378.02 103.05 378.00 104.04 C 373.97 103.16 369.98 102.15 365.90 101.48 C 364.57 101.09 362.34 101.23 361.43 100.12 L 361.80 97.90 Z" fill="#76b900" />
<path d="M 272.11 100.48 C 273.35 100.36 275.60 99.37 276.58 100.34 C 276.69 101.06 276.78 101.79 276.85 102.52 C 271.44 103.31 266.30 105.07 260.98 106.23 C 259.71 105.91 259.64 103.44 261.09 103.34 C 264.73 102.29 268.42 101.39 272.11 100.48 Z" fill="#76b900" />
<path d="M 395.14 106.16 C 400.59 107.75 405.92 109.84 411.13 112.08 C 410.77 112.81 410.40 113.53 410.01 114.24 C 408.63 114.22 407.26 113.51 405.99 113.02 C 402.09 111.35 398.08 110.13 394.10 108.66 C 394.43 107.82 394.77 106.99 395.14 106.16 Z" fill="#76b900" />
<path d="M 243.10 109.43 C 244.76 110.37 244.42 112.10 242.60 112.55 C 240.73 113.38 238.80 114.06 236.91 114.86 C 234.32 115.87 231.79 117.38 229.08 118.00 C 227.69 117.81 227.60 115.51 229.09 115.17 C 233.66 113.09 238.36 111.05 243.10 109.43 Z" fill="#76b900" />
<path d="M 426.86 119.25 C 431.26 121.38 435.52 123.80 439.75 126.23 C 441.84 127.46 442.13 128.06 440.07 129.74 C 435.28 127.13 430.63 124.32 425.74 121.89 C 425.77 120.98 426.14 120.11 426.86 119.25 Z" fill="#6faf03" />
<path d="M 213.52 126.04 C 208.85 129.18 203.87 131.91 199.13 134.98 C 198.74 133.83 197.30 132.71 198.91 131.83 C 202.69 129.29 206.68 126.88 210.64 124.63 C 212.65 123.49 212.87 124.03 213.52 126.04 Z" fill="#76b900" />
<path d="M 456.12 137.05 C 460.94 140.07 465.35 143.81 469.78 147.36 C 469.17 148.07 468.55 148.78 467.93 149.49 C 463.46 146.02 458.78 142.68 454.48 139.02 C 455.00 138.34 455.55 137.69 456.12 137.05 Z" fill="#6cab04" />
<path d="M 183.95 142.75 C 184.43 143.46 184.90 144.18 185.35 144.90 C 181.14 148.57 176.73 151.96 172.62 155.75 C 171.96 155.13 171.30 154.51 170.63 153.89 C 174.48 149.87 179.30 145.79 183.95 142.75 Z" fill="#6bab04" />
<path d="M 483.28 159.70 C 487.14 163.29 490.76 167.18 494.27 171.12 C 493.54 171.69 492.59 173.71 491.59 172.41 C 487.99 168.53 484.26 164.79 480.63 160.93 C 481.63 160.10 481.86 158.26 483.28 159.70 Z" fill="#6eae03" />
<path d="M 158.92 166.01 C 159.44 166.56 159.89 167.18 160.26 167.86 C 156.40 171.87 152.85 176.13 149.12 180.24 C 148.41 179.73 147.71 179.22 147.00 178.71 C 149.69 174.84 152.89 171.52 156.04 168.04 C 156.86 167.36 157.75 165.83 158.92 166.01 Z" fill="#6bab04" />
<path d="M 614.25 178.40 C 617.32 178.24 619.78 180.93 619.14 184.03 C 618.47 187.52 614.10 189.09 611.47 186.53 C 608.60 183.69 610.27 178.91 614.25 178.40 Z" fill="#324c4d" />
<path d="M 505.13 184.57 C 508.85 188.81 512.44 193.99 515.20 198.91 C 514.13 199.11 512.76 200.47 512.03 199.01 C 509.11 194.65 506.02 190.43 502.98 186.15 C 503.69 185.62 504.41 185.09 505.13 184.57 Z" fill="#6aa804" />
<path d="M 138.72 193.42 C 138.54 194.83 137.67 195.80 136.92 196.98 C 134.34 200.56 132.12 204.35 129.76 208.07 C 128.57 207.19 126.87 206.97 128.17 205.13 C 130.55 201.24 132.91 197.27 135.62 193.60 C 136.35 192.28 137.39 192.21 138.72 193.42 Z" fill="#6cab04" />
<path d="M 523.69 213.21 C 526.87 217.85 528.97 223.25 531.61 228.21 C 530.79 228.69 530.01 229.23 529.26 229.84 C 526.68 224.88 524.36 219.81 521.68 214.91 C 522.34 214.32 523.01 213.76 523.69 213.21 Z" fill="#76b900" />
<path d="M 119.12 222.02 C 119.94 222.11 120.74 222.41 121.50 222.91 C 119.41 228.00 116.91 232.90 114.88 238.03 C 113.96 237.89 113.05 237.76 112.14 237.62 C 114.01 232.33 116.40 226.93 119.12 222.02 Z" fill="#76b900" />
<path d="M 538.09 244.53 C 540.13 249.50 541.75 254.86 543.22 260.03 C 543.09 261.87 540.50 261.66 540.25 259.87 C 538.86 255.20 537.25 250.60 535.77 245.95 C 535.92 245.19 536.69 244.72 538.09 244.53 Z" fill="#76b900" />
<path d="M 213.01 253.02 C 217.97 256.52 221.07 262.88 223.13 268.43 C 223.64 269.80 224.14 271.18 224.61 272.56 C 225.60 275.82 226.37 279.15 227.32 282.42 C 227.73 283.85 228.14 285.28 228.56 286.71 C 230.51 293.08 231.77 299.60 234.01 305.89 C 234.47 307.20 234.94 308.50 235.38 309.81 C 237.58 316.88 240.51 323.86 245.78 329.22 C 250.18 333.75 257.16 335.73 263.10 333.15 C 268.24 330.91 271.28 326.70 273.89 321.94 C 278.41 312.74 280.81 303.13 283.09 293.20 C 283.39 291.95 283.72 290.69 284.08 289.45 C 284.77 288.59 285.11 287.50 285.11 286.18 C 285.37 284.63 285.75 283.10 286.16 281.57 C 288.82 273.54 290.47 263.46 295.77 256.79 C 299.17 252.34 305.33 249.47 310.67 252.35 C 315.88 255.25 319.10 261.51 321.23 266.85 C 325.33 277.61 327.47 289.02 330.92 300.03 C 331.43 301.78 331.91 303.62 332.72 305.26 C 336.04 307.89 341.08 308.73 345.14 309.66 C 341.58 309.53 338.02 309.56 334.46 309.65 C 335.68 316.21 338.99 322.65 343.19 327.81 C 346.29 331.70 351.00 334.19 356.00 334.35 C 361.50 334.12 366.60 331.24 369.66 326.66 C 374.26 319.82 377.09 311.50 379.09 303.56 C 379.80 301.31 380.50 299.10 380.84 296.76 L 381.10 295.76 C 384.40 285.51 385.90 273.62 390.53 263.49 C 393.10 258.41 395.95 253.17 401.88 251.59 C 406.17 250.24 409.88 252.10 412.88 255.11 C 419.45 261.55 420.95 270.66 423.91 279.00 C 424.57 281.32 425.09 283.67 425.71 286.00 C 426.10 287.61 426.57 289.19 427.07 290.77 C 430.77 303.51 433.17 316.80 441.60 327.40 C 445.21 332.03 451.08 335.10 457.02 334.11 C 461.68 333.44 465.66 330.10 468.50 326.52 C 472.01 321.34 474.44 315.11 476.26 309.14 C 476.65 307.84 477.03 306.54 477.41 305.23 C 477.66 304.35 477.92 303.47 478.17 302.59 C 482.00 289.04 484.28 274.24 490.27 261.45 C 492.48 256.17 497.17 251.81 502.97 251.00 C 502.88 252.16 502.83 253.32 502.81 254.47 C 500.73 255.12 498.80 255.57 497.29 257.28 C 491.30 263.41 489.88 272.20 487.40 280.11 C 485.55 287.86 483.72 295.58 481.63 303.27 C 481.16 304.87 480.64 306.46 480.17 308.07 C 478.04 316.02 475.24 323.56 469.99 330.03 C 466.74 334.58 461.50 337.26 456.00 337.82 C 450.92 338.29 445.93 336.05 442.00 333.00 C 436.83 328.30 433.66 322.38 431.27 315.89 C 427.14 306.19 424.97 296.12 422.18 286.00 C 421.64 284.46 421.47 281.72 419.97 280.82 C 418.05 280.07 415.99 279.65 413.97 279.26 C 416.02 279.44 418.06 279.36 420.11 279.28 C 418.31 271.99 415.82 263.87 410.99 257.98 C 409.35 255.82 406.69 254.60 404.00 254.63 C 399.92 255.13 396.86 258.60 395.06 262.05 C 390.73 270.26 388.78 280.28 386.68 289.31 C 385.78 292.23 384.90 295.14 384.20 298.12 C 381.16 308.41 378.87 320.54 372.11 329.07 C 368.42 334.15 362.37 337.92 355.99 337.93 C 350.94 337.68 345.74 335.46 342.19 331.83 C 336.28 326.22 333.05 317.35 330.30 309.84 C 329.91 308.65 329.56 307.45 329.19 306.25 C 328.69 304.57 328.13 302.91 327.61 301.24 C 327.07 299.24 326.56 297.23 325.94 295.25 C 322.64 283.67 320.33 270.97 314.35 260.60 C 311.94 256.81 307.84 253.28 303.07 255.21 C 299.19 257.09 296.43 261.07 294.97 265.03 C 293.14 269.88 291.63 274.87 290.19 279.85 C 289.84 281.18 289.49 282.51 289.14 283.83 C 288.41 286.56 287.76 289.30 287.15 292.05 C 286.85 293.30 286.56 294.55 286.25 295.79 C 283.95 304.90 281.39 314.66 277.13 323.07 C 274.07 328.96 269.98 334.31 263.54 336.68 C 256.68 339.50 249.13 336.95 243.85 332.16 C 237.36 326.37 233.93 316.63 231.18 308.59 C 230.81 307.40 230.44 306.20 230.09 304.99 C 228.35 299.33 226.86 293.59 225.08 287.94 C 224.78 286.88 224.49 285.83 224.20 284.77 C 222.61 277.55 220.45 270.36 217.36 263.64 C 215.61 260.15 212.99 256.13 209.02 254.99 C 205.57 253.87 202.42 255.71 200.31 258.36 C 195.20 264.46 194.13 271.50 191.74 278.88 C 191.41 280.03 191.11 281.18 190.82 282.34 C 189.20 290.06 187.08 297.63 185.04 305.25 C 184.70 306.50 184.33 307.74 183.95 308.97 C 181.29 317.12 178.23 325.84 172.06 332.05 C 168.49 335.75 163.82 337.41 158.80 338.02 C 158.88 336.82 158.96 335.62 159.06 334.42 C 162.83 333.92 166.28 332.74 169.09 330.09 C 175.15 324.35 177.30 317.34 179.97 309.73 C 180.38 308.51 180.75 307.28 181.13 306.05 C 183.69 298.19 185.15 290.17 187.27 282.20 C 187.57 281.06 187.88 279.93 188.19 278.80 C 189.67 274.04 190.89 269.17 192.65 264.51 C 194.61 259.89 197.62 254.59 202.36 252.37 C 205.77 250.66 209.90 250.64 213.01 253.02 Z" fill="#41bc00" />
<path d="M 106.18 253.98 C 107.05 253.82 107.97 253.88 108.93 254.14 C 107.59 259.08 106.11 263.98 104.82 268.93 C 104.79 271.19 101.52 270.72 101.98 269.03 C 102.92 264.30 104.55 258.52 106.18 253.98 Z" fill="#76b900" />
<path d="M 209.02 254.99 C 212.99 256.13 215.61 260.15 217.36 263.64 C 220.45 270.36 222.61 277.55 224.20 284.77 C 220.08 286.85 216.77 289.70 212.92 292.23 C 209.34 288.46 206.56 284.68 201.91 282.14 C 198.73 280.19 195.32 279.65 191.74 278.88 C 194.13 271.50 195.20 264.46 200.31 258.36 C 202.42 255.71 205.57 253.87 209.02 254.99 Z" fill="#0a2427" />
<path d="M 303.07 255.21 C 307.84 253.28 311.94 256.81 314.35 260.60 C 320.33 270.97 322.64 283.67 325.94 295.25 C 320.92 290.65 318.25 285.67 312.60 282.41 C 305.98 278.61 297.51 278.01 290.19 279.85 C 291.63 274.87 293.14 269.88 294.97 265.03 C 296.43 261.07 299.19 257.09 303.07 255.21 Z" fill="#0a2725" />
<path d="M 404.00 254.63 C 406.69 254.60 409.35 255.82 410.99 257.98 C 415.82 263.87 418.31 271.99 420.11 279.28 C 418.06 279.36 416.02 279.44 413.97 279.26 C 408.20 278.43 401.66 278.78 396.33 281.32 C 392.35 283.23 390.23 286.47 386.68 289.31 C 388.78 280.28 390.73 270.26 395.06 262.05 C 396.86 258.60 399.92 255.13 404.00 254.63 Z" fill="#0b2427" />
<path d="M 544.84 277.81 C 545.81 277.75 546.77 277.82 547.69 278.00 C 548.44 283.39 549.85 288.78 550.08 294.22 C 548.69 294.81 547.79 294.73 547.39 293.99 C 546.60 288.58 545.61 283.22 544.84 277.81 Z" fill="#76b900" />
<path d="M 188.19 278.80 C 187.88 279.93 187.57 281.06 187.27 282.20 C 182.20 282.34 177.28 284.07 173.42 287.38 C 169.41 291.03 166.39 295.72 162.64 299.64 C 155.62 307.47 144.39 310.59 134.15 310.03 C 134.22 308.89 134.28 307.74 134.34 306.60 C 141.09 306.55 147.50 305.93 153.41 302.41 C 161.62 297.85 164.62 290.34 172.05 284.07 C 176.65 279.86 182.22 279.15 188.19 278.80 Z" fill="#0095c9" />
<path d="M 191.74 278.88 C 195.32 279.65 198.73 280.19 201.91 282.14 C 206.56 284.68 209.34 288.46 212.92 292.23 C 213.80 293.20 214.67 294.19 215.56 295.15 C 219.59 299.62 224.54 302.75 230.09 304.99 C 230.44 306.20 230.81 307.40 231.18 308.59 C 223.61 307.13 217.75 302.17 212.41 296.92 C 211.69 296.16 210.97 295.40 210.26 294.62 C 205.01 288.26 199.61 282.80 190.82 282.34 C 191.11 281.18 191.41 280.03 191.74 278.88 Z" fill="#0095c9" />
<path d="M 269.26 281.56 C 273.08 282.60 276.10 284.97 279.77 286.37 C 278.89 287.29 278.04 288.22 277.21 289.16 C 265.87 282.10 252.95 281.38 239.99 282.82 C 236.29 283.61 231.45 284.08 228.56 286.71 C 228.14 285.28 227.73 283.85 227.32 282.42 C 231.28 281.71 234.91 280.06 238.94 279.62 C 248.95 278.19 259.54 278.64 269.26 281.56 Z" fill="#178217" />
<path d="M 312.60 282.41 C 318.25 285.67 320.92 290.65 325.94 295.25 C 326.56 297.23 327.07 299.24 327.61 301.24 C 321.34 297.19 317.65 289.81 311.21 285.74 C 304.90 281.54 296.11 281.30 289.14 283.83 C 289.49 282.51 289.84 281.18 290.19 279.85 C 297.51 278.01 305.98 278.61 312.60 282.41 Z" fill="#0095c9" />
<path d="M 413.97 279.26 C 415.99 279.65 418.05 280.07 419.97 280.82 C 421.47 281.72 421.64 284.46 422.18 286.00 C 414.79 281.62 404.67 280.93 397.09 285.17 C 391.71 287.96 388.66 293.64 384.20 298.12 C 384.90 295.14 385.78 292.23 386.68 289.31 C 390.23 286.47 392.35 283.23 396.33 281.32 C 401.66 278.78 408.20 278.43 413.97 279.26 Z" fill="#0095c9" />
<path d="M 423.91 279.00 C 428.28 279.00 432.45 279.51 436.71 280.47 C 452.12 283.13 462.72 298.04 478.17 302.59 C 477.92 303.47 477.66 304.35 477.41 305.23 L 475.32 305.60 C 470.66 303.31 466.03 301.19 461.72 298.27 C 454.53 293.67 449.20 288.13 440.93 285.21 C 436.15 283.64 430.78 282.19 425.72 282.73 L 425.71 284.62 L 425.71 286.00 C 425.09 283.67 424.57 281.32 423.91 279.00 Z" fill="#178217" />
<path d="M 518.41 278.81 C 518.36 279.93 518.37 281.05 518.43 282.17 C 514.37 282.27 510.58 283.01 507.02 285.02 C 503.60 286.75 501.76 289.53 499.28 292.30 C 495.23 296.78 491.95 301.46 486.81 304.84 C 485.36 305.62 483.92 306.40 482.45 307.14 C 481.69 307.46 480.93 307.77 480.17 308.07 C 480.64 306.46 481.16 304.87 481.63 303.27 C 483.89 302.45 486.01 301.43 487.80 299.79 C 493.00 295.01 497.01 288.96 502.24 284.23 C 506.81 280.20 512.46 278.96 518.41 278.81 Z" fill="#0095c9" />
<path d="M 277.21 289.16 C 273.57 293.49 269.66 298.79 264.78 301.76 C 256.17 307.46 243.86 307.20 234.01 305.89 C 231.77 299.60 230.51 293.08 228.56 286.71 C 231.45 284.08 236.29 283.61 239.99 282.82 C 252.95 281.38 265.87 282.10 277.21 289.16 Z" fill="#0a2528" />
<path d="M 286.16 281.57 C 285.75 283.10 285.37 284.63 285.11 286.18 C 283.44 286.38 282.70 287.54 282.03 288.93 C 281.43 289.60 280.83 290.27 280.23 290.94 C 275.03 296.43 271.73 302.18 264.80 305.74 C 255.64 310.89 245.49 310.35 235.38 309.81 C 234.94 308.50 234.47 307.20 234.01 305.89 C 243.86 307.20 256.17 307.46 264.78 301.76 C 269.66 298.79 273.57 293.49 277.21 289.16 C 278.04 288.22 278.89 287.29 279.77 286.37 C 281.64 284.35 283.60 282.69 286.16 281.57 Z" fill="#0095c9" />
<path d="M 311.21 285.74 C 317.65 289.81 321.34 297.19 327.61 301.24 C 328.13 302.91 328.69 304.57 329.19 306.25 C 321.26 306.18 313.23 304.98 305.72 302.38 C 298.63 300.18 293.25 296.03 287.15 292.05 C 287.76 289.30 288.41 286.56 289.14 283.83 C 296.11 281.30 304.90 281.54 311.21 285.74 Z" fill="#092527" />
<path d="M 190.82 282.34 C 199.61 282.80 205.01 288.26 210.26 294.62 C 206.15 297.26 202.51 300.03 197.90 301.86 C 193.72 303.42 189.47 304.68 185.04 305.25 C 187.08 297.63 189.20 290.06 190.82 282.34 Z" fill="#092528" />
<path d="M 425.72 282.73 C 430.78 282.19 436.15 283.64 440.93 285.21 C 449.20 288.13 454.53 293.67 461.72 298.27 C 466.03 301.19 470.66 303.31 475.32 305.60 C 466.09 307.37 455.42 307.27 446.73 303.36 C 437.33 298.96 432.93 291.26 425.71 284.62 L 425.72 282.73 Z" fill="#0a2527" />
<path d="M 224.20 284.77 C 224.49 285.83 224.78 286.88 225.08 287.94 C 221.76 290.16 218.52 292.46 215.56 295.15 C 214.67 294.19 213.80 293.20 212.92 292.23 C 216.77 289.70 220.08 286.85 224.20 284.77 Z" fill="#178217" />
<path d="M 425.71 284.62 C 432.93 291.26 437.33 298.96 446.73 303.36 C 455.42 307.27 466.09 307.37 475.32 305.60 L 477.41 305.23 C 477.03 306.54 476.65 307.84 476.26 309.14 C 466.89 310.71 456.50 310.75 447.47 307.50 C 439.13 304.51 432.74 297.22 427.07 290.77 C 426.57 289.19 426.10 287.61 425.71 286.00 L 425.71 284.62 Z" fill="#0095c9" />
<path d="M 285.11 286.18 C 285.11 287.50 284.77 288.59 284.08 289.45 L 282.03 288.93 C 282.70 287.54 283.44 286.38 285.11 286.18 Z" fill="#12543b" />
<path d="M 98.26 287.05 C 99.15 287.07 100.05 287.10 100.95 287.14 C 100.47 292.77 99.61 298.38 99.04 304.01 C 98.10 303.96 97.17 303.92 96.23 303.88 C 96.78 298.25 97.43 292.65 98.26 287.05 Z" fill="#76b900" />
<path d="M 225.08 287.94 C 226.86 293.59 228.35 299.33 230.09 304.99 C 224.54 302.75 219.59 299.62 215.56 295.15 C 218.52 292.46 221.76 290.16 225.08 287.94 Z" fill="#0a2424" />
<path d="M 282.03 288.93 L 284.08 289.45 C 283.72 290.69 283.39 291.95 283.09 293.20 C 282.13 292.45 281.18 291.70 280.23 290.94 C 280.83 290.27 281.43 289.60 282.03 288.93 Z" fill="#17811e" />
<path d="M 280.23 290.94 C 281.18 291.70 282.13 292.45 283.09 293.20 C 280.81 303.13 278.41 312.74 273.89 321.94 C 271.28 326.70 268.24 330.91 263.10 333.15 C 257.16 335.73 250.18 333.75 245.78 329.22 C 240.51 323.86 237.58 316.88 235.38 309.81 C 245.49 310.35 255.64 310.89 264.80 305.74 C 271.73 302.18 275.03 296.43 280.23 290.94 Z" fill="#092527" />
<path d="M 427.07 290.77 C 432.74 297.22 439.13 304.51 447.47 307.50 C 456.50 310.75 466.89 310.71 476.26 309.14 C 474.44 315.11 472.01 321.34 468.50 326.52 C 465.66 330.10 461.68 333.44 457.02 334.11 C 451.08 335.10 445.21 332.03 441.60 327.40 C 433.17 316.80 430.77 303.51 427.07 290.77 Z" fill="#0b2527" />
<path d="M 287.15 292.05 C 293.25 296.03 298.63 300.18 305.72 302.38 C 313.23 304.98 321.26 306.18 329.19 306.25 C 329.56 307.45 329.91 308.65 330.30 309.84 C 322.62 310.01 314.83 308.48 307.44 306.53 C 299.82 304.70 292.73 300.06 286.25 295.79 C 286.56 294.55 286.85 293.30 287.15 292.05 Z" fill="#178217" />
<path d="M 210.26 294.62 C 210.97 295.40 211.69 296.16 212.41 296.92 C 211.61 297.83 210.81 298.75 210.00 299.66 C 208.06 300.51 206.19 301.44 204.39 302.57 C 198.05 306.20 191.13 307.95 183.95 308.97 C 184.33 307.74 184.70 306.50 185.04 305.25 C 189.47 304.68 193.72 303.42 197.90 301.86 C 202.51 300.03 206.15 297.26 210.26 294.62 Z" fill="#178217" />
<path d="M 381.10 295.76 L 380.84 296.76 C 372.15 306.47 359.24 307.80 346.99 306.23 C 354.95 305.99 363.10 304.55 370.47 301.48 C 374.20 299.87 377.32 297.28 381.10 295.76 Z" fill="#127d33" />
<path d="M 380.84 296.76 C 380.50 299.10 379.80 301.31 379.09 303.56 C 375.52 305.35 372.41 307.34 368.53 308.42 C 361.08 310.66 352.81 310.33 345.14 309.66 C 341.08 308.73 336.04 307.89 332.72 305.26 C 331.91 303.62 331.43 301.78 330.92 300.03 C 335.94 303.58 340.90 305.43 346.99 306.23 C 359.24 307.80 372.15 306.47 380.84 296.76 Z" fill="#0095c9" />
<path d="M 210.00 299.66 C 207.93 305.86 204.70 311.74 201.38 317.36 C 198.52 322.29 196.46 327.61 193.41 332.42 C 192.07 334.59 191.29 336.93 190.21 339.20 C 184.99 348.81 180.08 358.62 175.51 368.55 C 171.71 374.89 169.56 381.72 166.35 388.30 C 163.20 394.34 160.63 400.68 157.78 406.86 C 156.60 409.32 155.08 411.49 154.18 414.09 C 152.35 419.36 149.59 424.26 147.48 429.44 C 144.85 436.84 140.84 443.58 138.45 451.09 C 137.69 450.25 136.88 449.47 136.04 448.72 C 136.46 444.91 138.69 442.50 140.08 439.00 C 143.56 430.06 147.55 421.30 151.56 412.58 C 153.33 407.26 156.20 402.47 158.34 397.29 C 162.55 389.59 165.25 381.25 169.60 373.62 C 175.40 360.08 183.07 347.41 188.85 333.84 C 193.31 325.56 197.65 317.27 201.86 308.85 C 202.77 306.86 204.47 304.79 204.39 302.57 C 206.19 301.44 208.06 300.51 210.00 299.66 Z" fill="#153626" />
<path d="M 379.09 303.56 C 377.09 311.50 374.26 319.82 369.66 326.66 C 366.60 331.24 361.50 334.12 356.00 334.35 C 351.00 334.19 346.29 331.70 343.19 327.81 C 338.99 322.65 335.68 316.21 334.46 309.65 C 338.02 309.56 341.58 309.53 345.14 309.66 C 352.81 310.33 361.08 310.66 368.53 308.42 C 372.41 307.34 375.52 305.35 379.09 303.56 Z" fill="#092527" />
<path d="M 486.81 304.84 C 491.48 305.36 496.33 306.48 500.99 306.51 C 503.71 306.53 506.40 306.64 509.11 306.89 C 509.10 307.94 509.09 308.99 509.10 310.04 C 500.29 310.28 490.92 309.68 482.45 307.14 C 483.92 306.40 485.36 305.62 486.81 304.84 Z" fill="#178217" />
<path d="M 166.24 306.52 C 171.21 306.47 176.16 306.34 181.13 306.05 C 180.75 307.28 180.38 308.51 179.97 309.73 C 175.26 309.98 170.57 310.25 165.85 310.01 C 165.89 308.83 166.02 307.66 166.24 306.52 Z" fill="#178217" />
<path d="M 549.27 311.49 C 550.07 311.43 550.86 311.38 551.65 311.35 C 552.19 317.14 552.08 323.04 551.89 328.85 C 551.02 328.80 550.15 328.75 549.27 328.70 C 549.50 322.99 548.70 317.14 549.27 311.49 Z" fill="#76b900" />
<path d="M 95.76 321.08 L 98.13 320.90 C 98.44 326.58 98.46 332.27 98.87 337.95 C 97.91 337.98 96.96 338.07 96.02 338.22 C 95.83 332.59 94.98 326.65 95.76 321.08 Z" fill="#73b501" />
<path d="M 548.04 345.57 C 548.97 345.78 549.93 345.90 550.90 345.94 C 550.31 351.55 549.53 357.10 548.61 362.66 C 547.79 362.66 546.97 362.66 546.14 362.66 C 546.18 356.94 547.74 351.31 548.04 345.57 Z" fill="#76b900" />
<path d="M 98.14 355.19 C 98.97 355.13 99.80 355.10 100.64 355.09 C 101.40 360.54 102.41 365.93 103.60 371.30 C 102.73 371.70 101.85 371.92 100.95 371.97 C 99.60 366.62 98.17 360.72 98.14 355.19 Z" fill="#76b900" />
<path d="M 542.22 379.17 C 543.09 379.19 543.97 379.23 544.84 379.29 C 543.72 385.02 541.87 390.63 539.97 396.14 C 539.20 395.82 538.46 395.45 537.75 395.04 C 537.80 393.03 538.74 391.02 539.30 389.10 C 540.41 385.83 541.04 382.41 542.22 379.17 Z" fill="#76b900" />
<path d="M 107.76 387.92 C 108.94 391.26 109.90 394.66 111.14 397.99 C 111.92 400.23 112.95 402.17 112.82 404.62 C 112.04 404.65 111.25 404.68 110.46 404.71 C 108.91 400.14 107.21 395.61 105.78 391.01 C 104.93 388.57 105.98 388.71 107.76 387.92 Z" fill="#76b900" />
<path d="M 531.34 411.15 C 532.23 411.42 533.11 411.71 533.99 412.03 C 531.96 416.61 529.97 421.24 527.67 425.70 C 526.66 427.79 525.92 427.78 524.31 426.11 C 526.62 421.10 529.09 416.19 531.34 411.15 Z" fill="#76b900" />
<path d="M 120.02 419.81 C 122.73 424.70 125.18 429.76 127.78 434.72 C 126.94 435.11 126.11 435.49 125.27 435.88 C 122.74 430.94 119.73 426.15 117.67 421.00 C 118.20 420.36 118.99 419.96 120.02 419.81 Z" fill="#76b900" />
<path d="M 515.56 441.36 C 516.43 441.50 517.28 441.73 518.12 442.07 C 515.84 447.37 511.94 452.11 508.66 456.85 C 507.93 456.24 507.19 455.63 506.45 455.03 C 509.58 450.52 512.61 445.99 515.56 441.36 Z" fill="#6aa904" />
<path d="M 136.04 448.72 C 136.88 449.47 137.69 450.25 138.45 451.09 C 141.02 455.11 144.02 458.80 146.78 462.68 C 146.13 463.27 145.47 463.86 144.81 464.45 C 141.91 461.40 139.64 457.81 137.02 454.49 C 136.10 453.20 135.37 451.81 134.74 450.35 L 136.04 448.72 Z" fill="#6cab04" />
<path d="M 134.74 450.35 C 135.37 451.81 136.10 453.20 137.02 454.49 C 133.36 462.30 130.61 470.51 126.80 478.24 C 126.12 477.29 125.42 476.35 124.71 475.42 C 127.75 466.91 131.91 458.88 134.74 450.35 Z" fill="#153626" />
<path d="M 495.97 468.58 C 496.66 469.12 497.33 469.67 497.99 470.23 C 494.53 474.73 490.54 479.21 486.31 483.01 C 485.76 482.30 485.21 481.60 484.66 480.90 C 488.49 476.85 492.11 472.59 495.97 468.58 Z" fill="#6dad03" />
<path d="M 157.93 475.79 C 161.86 479.64 166.02 483.46 169.60 487.63 C 169.08 488.31 168.53 488.98 167.97 489.63 C 163.79 485.74 159.21 481.79 155.81 477.19 C 156.51 476.71 157.21 476.24 157.93 475.79 Z" fill="#69a805" />
<path d="M 118.43 490.87 C 119.21 491.85 120.01 492.80 120.85 493.72 C 118.98 497.79 117.74 502.03 116.42 506.29 C 111.12 518.94 106.66 531.97 101.71 544.78 C 98.70 552.53 96.64 560.68 93.43 568.38 C 91.95 571.83 91.23 575.48 90.00 579.00 C 85.93 589.39 83.66 600.31 79.56 610.69 C 77.86 618.00 74.59 624.64 73.29 632.05 C 72.64 636.28 70.69 639.89 69.49 644.00 L 66.13 644.00 C 67.55 639.68 68.22 635.20 69.91 630.95 C 72.30 624.72 73.48 618.18 75.70 611.91 C 78.36 602.95 81.65 594.22 84.37 585.29 C 88.13 574.78 90.97 563.77 95.58 553.61 C 97.00 550.16 97.55 546.45 99.01 543.00 C 100.51 539.39 101.64 535.66 102.82 531.93 C 103.87 528.49 105.67 525.39 106.68 521.95 C 107.66 518.32 109.45 515.01 110.42 511.37 C 112.41 504.24 116.34 497.97 118.43 490.87 Z" fill="#153725" />
<path d="M 472.07 492.75 C 472.77 493.38 473.43 494.05 474.04 494.75 C 469.86 498.56 465.36 502.11 460.84 505.51 C 460.25 504.72 459.62 503.98 458.95 503.28 C 463.46 499.93 467.72 496.29 472.07 492.75 Z" fill="#6dad03" />
<path d="M 183.56 499.44 C 187.72 502.63 191.95 505.71 196.14 508.88 C 195.67 509.63 195.20 510.38 194.73 511.13 C 190.17 508.34 185.62 504.90 181.51 501.47 C 180.17 500.74 182.38 497.97 183.56 499.44 Z" fill="#6aa904" />
<path d="M 444.96 513.21 C 445.63 513.57 446.18 514.19 446.62 515.07 C 442.42 518.45 437.38 521.04 432.64 523.61 C 430.99 524.69 430.02 521.24 431.84 520.78 C 436.29 518.40 440.48 515.47 444.96 513.21 Z" fill="#6aa904" />
<path d="M 210.19 518.05 C 213.85 519.33 217.03 521.83 220.59 523.40 C 222.02 524.22 224.00 524.78 225.05 526.05 C 225.03 527.24 224.65 527.90 223.91 528.03 C 218.81 526.08 214.02 523.06 209.21 520.47 C 209.50 519.66 209.83 518.85 210.19 518.05 Z" fill="#76b900" />
<path d="M 415.24 529.09 C 416.00 530.17 416.20 531.06 415.84 531.76 C 410.85 534.17 405.52 536.30 400.22 537.93 C 400.11 537.01 400.01 536.10 399.91 535.19 C 405.09 533.33 410.13 531.16 415.24 529.09 Z" fill="#76b900" />
<path d="M 241.05 532.98 C 244.61 533.71 247.94 535.47 251.44 536.51 C 253.20 537.19 255.48 537.53 256.89 538.82 L 255.99 540.88 C 250.61 539.54 245.45 537.26 240.18 535.53 C 240.14 534.46 240.43 533.61 241.05 532.98 Z" fill="#76b900" />
<path d="M 383.23 540.43 C 383.48 541.34 383.78 542.22 384.12 543.07 C 378.54 544.59 372.89 546.11 367.16 546.95 C 367.13 546.03 367.11 545.11 367.08 544.19 C 372.53 543.18 377.87 541.83 383.23 540.43 Z" fill="#76b900" />
<path d="M 273.11 543.07 C 278.75 543.46 284.41 545.07 290.01 546.00 C 289.75 546.87 289.49 547.74 289.25 548.61 C 283.82 547.81 278.45 546.74 273.09 545.62 C 273.05 544.76 273.06 543.91 273.11 543.07 Z" fill="#76b900" />
<path d="M 350.08 547.03 C 350.15 547.94 350.21 548.85 350.25 549.76 C 344.55 550.29 338.89 550.88 333.15 550.93 C 333.20 550.03 333.25 549.13 333.30 548.23 C 338.90 547.98 344.49 547.22 350.08 547.03 Z" fill="#76b900" />
<path d="M 306.97 547.96 C 312.52 547.89 318.08 548.40 323.64 548.32 C 323.71 549.22 323.78 550.12 323.86 551.02 C 318.27 551.47 312.62 550.79 307.02 550.70 C 306.67 549.71 306.65 548.79 306.97 547.96 Z" fill="#76b900" />
</svg>